<svg xmlns="http://www.w3.org/2000/svg" width="32" height="24" fill="none"><path fill="#5FA633" d="M19.27.045c-.238.085-.4.199-.488.34l-.055.086-.043-.081a.288.288 0 0 0-.115-.117c-.105-.05-.412-.064-.585-.027a.906.906 0 0 1-.367 0c-.32-.042-.5-.015-.603.087-.047.047-.082.106-.082.14v.06l-.298-.01-.3-.01-.017.09c-.015.084.005.225.055.384.012.042.01.054-.01.042a4.892 4.892 0 0 0-.558-.018c-.53 0-.662.018-.752.097-.055.045-.058.151-.008.218.055.072.045.084-.055.084-.177 0-.2.017-.222.156l-.023.129-.105-.005a.93.93 0 0 1-.255-.067 16.337 16.337 0 0 1-.307-.131c-.203-.084-.38-.1-.493-.04-.137.072-.175.144-.205.392a1.174 1.174 0 0 1-.045.242c-.012.013-.07-.012-.132-.054-.235-.156-.59-.25-.958-.25h-.205l-.017.076a.744.744 0 0 0 .032.412l.05.104-.117-.082c-.288-.203-1.433-.798-1.49-.775-.03.012-.068.156-.103.386-.017.1-.022.107-.085.094a4.602 4.602 0 0 0-.342-.032l-.278-.017-.015.081c-.01.045-.017.161-.017.258 0 .168-.005.183-.08.255-.095.09-.32.206-.395.206-.065 0-.103.094-.105.252 0 .171.045.28.162.382.093.076.098.086.04.071-.06-.014-.067-.01-.08.08-.01.052-.022.185-.032.297-.01.114-.02.206-.023.206-.002 0-.07-.033-.152-.075-.228-.111-.438-.156-.748-.158-.225-.003-.295.007-.38.047l-.107.05.075.13c.067.114.16.201.315.293.032.02.005.022-.118.017-.28-.017-.425.102-.427.347-.003.25.137.46.39.582l.09.045h-.235c-.2-.003-.248.004-.305.05-.103.073-.1.103.005.148.202.084.982.205 1.325.208h.052l-.055.158c-.03.087-.062.169-.07.184-.027.042.058.059.408.081.345.02.535.06.47.1a.318.318 0 0 1-.133.022c-.155.002-.3.081-.51.282-.272.263-.3.272-.652.253-.733-.045-.69-.047-.793.005-.125.064-.157.104-.28.351-.057.117-.125.23-.145.255-.025.028-.032.052-.017.067.032.032.295.092.492.112.153.015.168.022.168.072 0 .03.015.074.032.099.048.064.398.059.743-.008.392-.077.47-.072.675.05.095.054.217.106.275.114.055.007.1.024.1.034 0 .013-.063.13-.138.26-.115.196-.135.246-.11.275.065.075.28.159.548.21l.275.053v.087c0 .061-.025.111-.098.193-.092.106-.172.307-.14.359.01.012.008.022-.005.022-.01 0-.037-.037-.055-.082-.167-.374-1.215-.933-1.75-.933a.548.548 0 0 0-.25.044c-.095.05-.177.181-.177.275 0 .057-.003.057-.08-.03a.447.447 0 0 0-.21-.123l-.125-.035-.055.156c-.03.084-.065.183-.08.218l-.023.062-.18-.074c-.175-.075-.515-.171-.6-.171-.022 0-.067.037-.095.084-.107.17-.28.198-.692.114-.605-.127-.843-.1-1.423.16-.042.02-.177.055-.297.078l-.223.044.075.057c.075.057.075.06.035.144l-.04.084-.357.002c-.425 0-.488.02-.533.176-.027.085-.022.149.023.424.032.178.052.33.045.334a7.894 7.894 0 0 1-.53-.064c-.623-.092-.663-.092-.823-.018-.15.067-.215.156-.232.308l-.013.111-.28-.017c-.527-.032-.882.047-.995.218-.047.069-.032.086.11.146.248.101.585.146 1.61.215.413.03.863.07 1 .09 1.073.158 1.485.193 2.13.175.5-.012.72-.042.83-.114.065-.04.065-.04-.01.102-.045.089-.045.099-.005.178.088.186.513.33.905.305a2.15 2.15 0 0 0 .265-.027c.025-.013.05.01.08.069.058.124.193.2.48.28.315.084.77.099.91.025.115-.057.118-.055.04.034-.18.213-.21.404-.085.52.103.095.275.144.628.176.27.022.537.008.732-.042.04-.01.06.01.1.092a.335.335 0 0 0 .145.158c.085.047.105.077.155.223.085.25.223.535.315.659.045.06.175.18.288.268.13.101.207.178.21.208 0 .086.11.21.24.28.082.042.15.101.195.17.142.226.257.295.652.4.208.056.29.061 1.028.078.44.01.812.025.825.035.015.007.345.06.737.116 1.055.152 1.165.184 1.71.516.343.21.463.304.635.502.088.102.215.233.283.295l.12.112.007.619c.005.34.015.636.025.659.01.02.083.069.163.106.402.193 1.08.575 1.162.657.053.049.158.178.23.287.135.2.27.324.44.404l.09.042.015.26c.018.33.095.636.315 1.245.145.402.185.553.263.971.05.273.102.595.115.719.045.423.08.616.105.572a2.6 2.6 0 0 0 .05-.411c.03-.384.012-.818-.068-1.734-.02-.226-.035-.535-.037-.691v-.283l-.11-.13c-.108-.13-.108-.134-.088-.248.023-.114.09-.25.113-.226.025.023.205.733.22.865.007.076.02.31.025.52.005.208.027.54.05.738.02.198.05.547.065.78.025.426.075.689.17.907.092.21.11.178.145-.25.012-.184-.018-.578-.115-1.487-.028-.252-.05-.5-.05-.552a.29.29 0 0 0-.063-.176c-.047-.062-.062-.111-.062-.208 0-.072.005-.129.012-.129a.43.43 0 0 1 .088.037l.072.038.015-.112c.01-.06.015-.327.01-.592-.005-.265 0-.473.01-.463.013.012.038.126.058.253.017.128.05.272.07.32.02.046.05.247.065.445.017.198.04.436.047.532l.018.174.042-.136c.048-.151.09-.535.093-.805 0-.107.012-.194.035-.223.052-.077.112-.28.14-.478.022-.164.112-.4.155-.401.007 0 .02.403.025.899.007.946.032 1.154.09.805.062-.367.082-.699.105-1.605.012-.51.035-1.023.05-1.14.02-.141.025-.401.015-.785-.018-.597-.028-.7-.128-1.11a4.782 4.782 0 0 1-.087-.507 2.746 2.746 0 0 0-.2-.828 8.497 8.497 0 0 1-.15-.43c-.063-.22-.063-.248.01 1.307l.012.26-.04-.123c-.02-.07-.052-.191-.07-.273-.032-.144-.032-.129-.035.312-.002.37-.01.476-.042.54l-.04.08-.135-.144-.133-.144-.002.136a.46.46 0 0 1-.023.169c-.012.022-.092.037-.23.044-.115.008-.252.015-.302.02-.105.01-.098.03-.148-.332-.03-.2-.032-.205-.052-.114a2.45 2.45 0 0 1-.088.28l-.065.186-.15-.015a.692.692 0 0 1-.175-.032.296.296 0 0 0-.065-.025c-.067-.01-.21-.17-.295-.34-.15-.291-.53-1.2-.607-1.448-.06-.188-.12-.49-.125-.602 0-.008.042-.03.095-.047.05-.015.177-.067.28-.114.15-.067.26-.094.542-.134a7.51 7.51 0 0 0 .55-.096 3.07 3.07 0 0 0 .853-.417c.1-.069.19-.128.195-.128.015 0 .23-.174.335-.268.095-.086.475-.27.68-.327.135-.037.31-.057.665-.074 1.047-.052 1.62-.22 2.13-.632.445-.359.575-.53.662-.896l.043-.176.095.032c.052.018.132.052.177.075.07.037.13.042.41.03a4.12 4.12 0 0 0 .488-.053c.09-.022.27-.037.405-.04h.24l.017.1c.013.079.03.101.08.114.255.064.888-.228 1.105-.513.08-.104.088-.11.22-.11.118 0 .145-.009.198-.068a.384.384 0 0 0 .075-.169c.012-.08.025-.096.057-.082.375.169.77.22 1.365.181.208-.012.388-.03.405-.034.015-.005.035-.092.045-.199l.018-.188.142.015c.078.007.265.025.415.037.353.035.52.008.62-.099.09-.101.088-.183-.015-.285-.112-.111-.317-.168-.927-.26-.275-.042-.51-.074-.52-.074a.641.641 0 0 1-.14-.11c-.13-.118-.298-.18-.43-.155a.919.919 0 0 0-.215.109c-.18.119-.283.121-.598.015a4.296 4.296 0 0 0-.367-.107.552.552 0 0 1-.145-.04c0-.007.027-.051.062-.101.033-.05.095-.176.138-.28l.077-.19.428-.018c.237-.01.45-.03.475-.042.135-.072.157-.384.055-.723-.013-.037.007-.042.165-.042.155 0 .185-.008.237-.062.13-.129.035-.503-.155-.614l-.087-.05.075-.047c.097-.062.165-.203.167-.347 0-.094-.012-.129-.072-.19-.213-.218-.8-.394-1.853-.548-.82-.121-1.247-.208-1.337-.272a.38.38 0 0 1-.15-.29c0-.055-.033-.094-.145-.183a1.43 1.43 0 0 0-.768-.342c-.115-.015-.137-.025-.1-.04.17-.07.303-.275.363-.565.02-.094.04-.14.065-.14.092 0 .17-.095.29-.345.172-.367.245-.59.245-.763 0-.25-.13-.379-.385-.379-.25 0-.775.151-1.008.288-.1.061-.132.071-.117.04.04-.085.04-.471 0-.595-.095-.278-.388-.525-.813-.684-.35-.131-.567-.17-.877-.158-.235.01-.283.02-.445.094a.978.978 0 0 0-.355.265l-.17.18.012-.094c.03-.23-.287-.361-.66-.275-.5.117-.767.22-1.027.4-.09.061-.11.066-.095.029.097-.23.127-.468.09-.679-.08-.44-.303-.641-.548-.493-.045.028-.085.048-.087.043a6.034 6.034 0 0 1-.048-.317c-.057-.402-.14-.62-.29-.768-.177-.174-.39-.216-.64-.127Zm2.632 7.748c.12.166.337.168.947.012l.38-.096.06.064a1.1 1.1 0 0 1 .138.213c.197.394.427.409 1.012.064.31-.18.273-.188.493.097.185.238.377.419.475.436.04.01.075.02.075.027 0 .01-.05.112-.063.126a4.253 4.253 0 0 1-.295-.044c-.577-.102-.685-.104-1.08-.01-.192.047-.37.092-.392.099-.033.01-.045 0-.045-.032 0-.183-.305-.354-.763-.431a2.996 2.996 0 0 0-.405-.047h-.13l-.017.146-.015.146-.185.052c-.1.03-.273.09-.383.136-.112.047-.202.077-.202.067 0-.007.02-.094.047-.188.053-.198.055-.206.14-.74.07-.451.118-.555.14-.32.01.094.035.176.068.223Zm-1.87.205a.179.179 0 0 1-.075.025c-.033 0-.033-.002 0-.025a.179.179 0 0 1 .075-.024c.032 0 .032.002 0 .024Zm1.1.449a1.61 1.61 0 0 1-.378.827c-.225.27-.355.347-.902.547l-.483.174-.095-.104a.761.761 0 0 0-.217-.161c-.108-.05-.13-.07-.153-.154a11.574 11.574 0 0 0-.172-.493c-.083-.215-.143-.408-.135-.428.007-.018.067-.045.13-.06.362-.074.422-.079.592-.057l.175.023.245-.127c.208-.106.268-.126.38-.126.143 0 .158.012.3.22.028.04.083.082.123.092.065.017.092.005.225-.102.085-.064.207-.175.275-.245a.667.667 0 0 1 .132-.116c.005.002-.015.134-.042.29Zm-3.005.914c.035.059.027.059-.12.014-.123-.037-.125-.032.062-.061.015 0 .04.02.058.047Zm2.715.433c.017.07.13.136.23.136h.067l-.057.062c-.118.124-.01.37.192.436.048.015.17.022.27.017.183-.007.183-.007.16.05-.077.203.053.421.295.49.128.038.13.038.103.112-.013.04-.103.223-.198.409-.195.38-.247.577-.247.92v.221l-.168.077c-1.132.505-1.277.565-1.445.602-.207.044-1.24.044-1.48.002-.21-.04-.2-.014-.142-.354.035-.205.067-.294.285-.74.137-.28.262-.555.28-.612.02-.065.052-.114.087-.129a.197.197 0 0 0 .085-.094c.04-.106.098-.158.248-.223.262-.116.402-.27.417-.463a2.76 2.76 0 0 1 .023-.18c.015-.073.007-.083-.068-.115l-.085-.032.145-.139c.11-.104.203-.16.388-.24.132-.057.315-.141.405-.188.09-.047.17-.084.177-.087.01 0 .025.027.033.062Zm2.047 1.293c.02.025.045.074.055.111l.018.067.065-.077.067-.076.013.06c.012.054.035.061.212.088.11.015.443.035.738.042.297.008.615.02.707.03.158.015.168.02.153.07-.078.267-.61.856-.893.988-.277.131-.385.146-1.095.158l-.665.013-.02-.12a3.846 3.846 0 0 1-.017-.405c0-.377.08-.617.3-.912.055-.072.072-.08.192-.08.093 0 .14.013.17.043Zm-4.457.44c0 .016-.205.546-.255.657-.113.26-.24.75-.27 1.053a1.147 1.147 0 0 1-.05.27.109.109 0 0 0-.025.072c0 .081-.103.272-.328.604-.262.386-.347.565-.357.748-.008.134-.01.136-.105.168-.2.07-.578.156-.735.171-.12.013-.29-.005-.638-.06-.26-.041-.587-.081-.725-.09a18.418 18.418 0 0 1-.8-.078 24.74 24.74 0 0 0-1.3-.096c-.787-.035-1.032-.072-1.002-.151.05-.127.295-.397.49-.538.262-.188.527-.448.6-.587.085-.166.125-.403.125-.768 0-.183.007-.393.015-.465l.017-.129h.715l.018.09c.01.049.01.15.002.225l-.015.136.108.044c.282.127.792.193 1.12.149.267-.037.422-.114.487-.245l.05-.1.045.102c.115.26.425.176.838-.223.25-.245.327-.438.237-.609-.047-.09-.047-.09.023-.09.067 0 .165-.103.165-.175s.037-.074.127-.005c.208.154.63.305.868.305.195 0 .337-.114.367-.298.015-.094.023-.099.103-.099.047 0 .085.005.085.013Zm-6.473.632c.165.045.373.077.705.112l.143.015v.17c0 .095-.013.258-.025.365-.078.574-.55 1.025-1.53 1.451l-.14.062-.213-.213c-.195-.203-.385-.476-.447-.651-.023-.067-.018-.08.075-.169.085-.082.105-.121.142-.29.04-.185.13-.43.155-.43.008 0 .045.022.083.049.145.104.247.131.37.099a.625.625 0 0 0 .47-.503.46.46 0 0 1 .025-.116c.007 0 .09.022.187.05Z"/></svg>