<svg xmlns="http://www.w3.org/2000/svg" width="18" height="19" fill="none"><path fill="#5FA633" d="M14.594 18.967h-.941c-4.129-.488-7.157-2.408-9.359-4.864C2.084 11.642.34 8.473 0 4.21V3.066c.078-.774.459-1.304.898-1.757C1.447.748 2.272.026 3.024 0c.554-.018 1.5.38 1.879.899.329.446.504 1.339.656 2.003.154.67.505 1.643.408 2.289-.148 1.007-1.487 1.434-1.879 2.166 1.307 3.135 3.443 5.439 6.293 7.03.715-.391 1.346-1.571 2.332-1.594.359-.01.818.178 1.184.286.402.12.75.275 1.104.408.596.224 1.648.52 2.004 1.02.365.514.57 1.357.49 1.88-.164 1.04-1.879 2.197-2.901 2.579Z"/></svg>